<svg width="1440" height="435" viewBox="0 0 1440 435" fill="none" xmlns="http://www.w3.org/2000/svg">
<path d="M1440 0H0V435H1440V0Z" fill="#B83CFF"/>
<path d="M0 238L34.4 239.5C68.8 241 137.6 244 206.08 243.7C274.72 243.3 342.88 239.7 411.52 239C480 238.3 548.8 240.7 617.28 236.5C685.92 232.3 754.08 221.7 822.72 219.7C891.2 217.7 960 224.3 1028.48 233C1097.12 241.7 1165.28 252.3 1233.92 247.8C1302.4 243.3 1371.2 223.7 1405.6 213.8L1440 204V436H1405.6C1371.2 436 1302.4 436 1233.92 436C1165.28 436 1097.12 436 1028.48 436C960 436 891.2 436 822.72 436C754.08 436 685.92 436 617.28 436C548.8 436 480 436 411.52 436C342.88 436 274.72 436 206.08 436C137.6 436 68.8 436 34.4 436H0V238Z" fill="#9800F0"/>
<path d="M0 247L34.4 244C68.8 241 137.6 235 206.08 243.8C274.72 252.7 342.88 276.3 411.52 279.5C480 282.7 548.8 265.3 617.28 253.5C685.92 241.7 754.08 235.3 822.72 243.3C891.2 251.3 960 273.7 1028.48 274.5C1097.12 275.3 1165.28 254.7 1233.92 250.8C1302.4 247 1371.2 260 1405.6 266.5L1440 273V436H1405.6C1371.2 436 1302.4 436 1233.92 436C1165.28 436 1097.12 436 1028.48 436C960 436 891.2 436 822.72 436C754.08 436 685.92 436 617.28 436C548.8 436 480 436 411.52 436C342.88 436 274.72 436 206.08 436C137.6 436 68.8 436 34.4 436H0V247Z" fill="#8700D6"/>
<path d="M0 309L34.4 314C68.8 319 137.6 329 206.08 330.3C274.72 331.7 342.88 324.3 411.52 324.2C480 324 548.8 331 617.28 324C685.92 317 754.08 296 822.72 287.7C891.2 279.3 960 283.7 1028.48 287.8C1097.12 292 1165.28 296 1233.92 298.5C1302.4 301 1371.2 302 1405.6 302.5L1440 303V436H1405.6C1371.2 436 1302.4 436 1233.92 436C1165.28 436 1097.12 436 1028.48 436C960 436 891.2 436 822.72 436C754.08 436 685.92 436 617.28 436C548.8 436 480 436 411.52 436C342.88 436 274.72 436 206.08 436C137.6 436 68.8 436 34.4 436H0V309Z" fill="#7700BC"/>
<path d="M0 330L34.4 332C68.8 334 137.6 338 206.08 344.8C274.72 351.7 342.88 361.3 411.52 361.3C480 361.3 548.8 351.7 617.28 351.8C685.92 352 754.08 362 822.72 361.7C891.2 361.3 960 350.7 1028.48 342.5C1097.12 334.3 1165.28 328.7 1233.92 330C1302.4 331.3 1371.2 339.7 1405.6 343.8L1440 348V436H1405.6C1371.2 436 1302.4 436 1233.92 436C1165.28 436 1097.12 436 1028.48 436C960 436 891.2 436 822.72 436C754.08 436 685.92 436 617.28 436C548.8 436 480 436 411.52 436C342.88 436 274.72 436 206.08 436C137.6 436 68.8 436 34.4 436H0V330Z" fill="#6700A3"/>
<path d="M0 379L34.4 383.5C68.8 388 137.6 397 206.08 400.3C274.72 403.7 342.88 401.3 411.52 396.5C480 391.7 548.8 384.3 617.28 380C685.92 375.7 754.08 374.3 822.72 378C891.2 381.7 960 390.3 1028.48 391.3C1097.12 392.3 1165.28 385.7 1233.92 381.2C1302.4 376.7 1371.2 374.3 1405.6 373.2L1440 372V436H1405.6C1371.2 436 1302.4 436 1233.92 436C1165.28 436 1097.12 436 1028.48 436C960 436 891.2 436 822.72 436C754.08 436 685.92 436 617.28 436C548.8 436 480 436 411.52 436C342.88 436 274.72 436 206.08 436C137.6 436 68.8 436 34.4 436H0V379Z" fill="#58008B"/>
</svg>
