<svg width="50" height="50" viewBox="0 0 50 50" fill="none" xmlns="http://www.w3.org/2000/svg">
<path d="M46.7736 10.6566V30.6963H27.5957V6.32129H41.7339L46.7736 10.6566Z" fill="#311B92"/>
<path d="M43.8325 18.0767H30.5369V27.7561H43.8325V18.0767Z" fill="#7E57C2"/>
<path d="M46.7736 10.6566H41.7339V6.32129L46.7736 10.6566Z" fill="#8F9FFF"/>
<path d="M32.9666 10.1274L18.9814 10.1432C17.8035 10.1445 16.8498 11.1004 16.8511 12.2783C16.8524 13.4561 17.8083 14.4099 18.9862 14.4086L32.9714 14.3929L36.4377 12.268L32.9666 10.1274Z" fill="#311B92"/>
<path d="M18.9814 10.1434L20.1358 10.1421V14.4075L18.9862 14.4088C17.8083 14.4101 16.8524 13.4563 16.8511 12.2785C16.8498 11.1006 17.8035 10.1447 18.9814 10.1434Z" fill="#FFC107"/>
<path d="M31.0894 31.6709V40.9767C31.0894 42.4741 29.8755 43.688 28.3781 43.688H7.98305C6.48563 43.688 5.27173 42.4741 5.27173 40.9767V31.6709" fill="#311B92"/>
<path d="M29.3888 22.7275H6.97691C5.57162 22.7275 4.43237 23.8668 4.43237 25.2721V31.6708H31.9333V25.2721C31.9333 23.8668 30.7941 22.7275 29.3888 22.7275Z" fill="#311B92"/>
<path d="M23.3525 20.4108V22.7276H21.1475V20.8259H15.2136V22.7276H13.0086V20.4108C13.0086 19.6262 13.6441 18.9971 14.4289 18.9971H21.9388C22.7234 18.9971 23.3525 19.6262 23.3525 20.4108ZM9.04785 30.2849V33.1318C9.04785 33.927 9.69245 34.5716 10.4876 34.5716H10.6708C11.466 34.5716 12.1106 33.927 12.1106 33.1318V30.2849H9.04785ZM24.255 30.2849V33.1318C24.255 33.927 24.8996 34.5716 25.6948 34.5716H25.878C26.6731 34.5716 27.3177 33.927 27.3177 33.1318V30.2849H24.255Z" fill="#FFC107"/>
<path d="M48.3158 32.9548C48.1198 32.893 47.9159 33.0022 47.8552 33.1961C45.9383 39.306 41.589 44.5472 35.9228 47.5752C35.744 47.6714 35.6762 47.894 35.772 48.0728C35.8681 48.2535 36.0923 48.3188 36.2697 48.2243C42.1043 45.1058 46.5828 39.7089 48.5568 33.4158C48.6174 33.2219 48.5097 33.0158 48.3158 32.9548Z" fill="#5E35B1"/>
<path d="M46.1603 31.0645H46.773C46.9762 31.0645 47.1407 30.9 47.1407 30.6968V10.7294C47.1836 10.523 47.7002 10.7773 41.734 5.95354H34.673C31.581 4.34185 28.0767 3.41699 24.3552 3.41699C11.9891 3.41699 1.92871 13.4777 1.92871 25.8435C1.92871 29.8912 3.01927 33.6833 4.904 36.9645V40.9766C4.904 42.6741 6.28519 44.0556 7.98304 44.0556H11.3039C14.9842 46.7006 19.4872 48.2699 24.3552 48.2699C34.9233 48.2699 43.8005 40.9194 46.1603 31.0645ZM32.3009 30.3292V28.1233H43.8319C44.0351 28.1233 44.1995 27.9589 44.1995 27.7557V18.0762C44.1995 17.873 44.0351 17.7086 43.8319 17.7086H30.5362C30.333 17.7086 30.1686 17.873 30.1686 18.0762V22.4797C29.9187 22.4097 29.6604 22.3602 29.3884 22.3602H27.9631V14.7659L32.7844 14.7604C33.0961 14.8295 33.1743 14.6786 36.6297 12.5816C36.7385 12.5148 36.8049 12.3963 36.8053 12.2685C36.8053 12.1411 36.7392 12.0222 36.6308 11.9551C33.0238 9.75294 33.1581 9.75962 32.9665 9.75962L32.8623 9.75976C32.8623 9.75976 32.8613 9.75976 32.8611 9.75976L27.9631 9.76528V6.68884H41.3664V10.6565C41.3664 10.8597 41.5308 11.0241 41.734 11.0241H46.4054V30.3292H32.3009ZM27.6852 31.3029V30.2847C27.6852 30.0815 27.5208 29.917 27.3175 29.917H24.255C24.0518 29.917 23.8874 30.0815 23.8874 30.2847V31.3029H12.4781V30.2847C12.4781 30.0815 12.3137 29.917 12.1105 29.917H9.04756C8.84435 29.917 8.67992 30.0815 8.67992 30.2847V31.3029H4.79988V25.2719C4.79988 24.072 5.77644 23.0954 6.97668 23.0954H13.0084H15.2136H21.1476H23.3524H29.3884C30.589 23.0954 31.5656 24.072 31.5656 25.2719V31.3029H27.6852ZM26.9499 30.6523V33.1318C26.9499 33.7227 26.4688 34.2038 25.8778 34.2038H25.6947C25.1038 34.2038 24.6227 33.7227 24.6227 33.1318V30.6523H26.9499ZM11.7428 30.6523V33.1318C11.7428 33.7227 11.2617 34.2038 10.6707 34.2038H10.4876C9.89631 34.2038 9.41521 33.7227 9.41521 33.1318V30.6523H11.7428ZM22.9848 22.3602H21.5153V20.8264C21.5153 20.6232 21.3508 20.4587 21.1476 20.4587H15.2136C15.0103 20.4587 14.8459 20.6232 14.8459 20.8264V22.3602H13.376V20.4106C13.376 19.834 13.8482 19.3651 14.4287 19.3651H21.9385C22.5155 19.3651 22.9848 19.834 22.9848 20.4106V22.3602ZM15.5812 22.3602V21.194H20.78V22.3602H15.5812ZM30.9039 22.7974V18.4438H43.4642V27.388H32.3009V25.2719C32.3009 24.223 31.7382 23.31 30.9039 22.7974ZM17.2187 12.2779C17.2173 11.3062 18.0025 10.5122 18.9819 10.5107L19.7682 10.51V14.0398L18.9859 14.0407C18.9122 14.0407 18.9101 14.0407 18.9837 14.0407C18.0115 14.0407 17.2198 13.2501 17.2187 12.2779ZM20.5035 12.6358H25.3623C25.5655 12.6358 25.7299 12.4714 25.7299 12.2682C25.7299 12.065 25.5655 11.9005 25.3623 11.9005H20.5035V10.509L32.494 10.4953V14.0253L20.5035 14.039V12.6358ZM33.2293 10.7212L35.7357 12.2671L33.2293 13.8033V10.7212ZM45.7819 10.2888H42.1017V7.12254C42.1894 7.19804 45.9036 10.3935 45.7819 10.2888ZM2.664 25.8435C2.664 13.8827 12.3944 4.15229 24.3552 4.15229C27.4234 4.15229 30.3411 4.79912 32.9889 5.95354H27.5954C27.3922 5.95354 27.2278 6.11798 27.2278 6.32119V9.76609L18.9812 9.77542C17.6022 9.77722 16.4816 10.8999 16.4834 12.2786C16.4852 13.6558 17.6068 14.776 18.9837 14.776H18.9866L27.2278 14.7667V22.3602H23.7201V20.4106C23.7201 19.429 22.9209 18.6298 21.9385 18.6298H14.4287C13.4428 18.6298 12.6407 19.429 12.6407 20.4106V22.3602H6.97668C5.37109 22.3602 4.06458 23.6663 4.06458 25.2719V31.6705C4.06458 31.8737 4.22902 32.0382 4.43223 32.0382H4.90399V35.421C3.47362 32.5306 2.664 29.281 2.664 25.8435ZM5.63929 40.9766V32.0382H8.67992V33.1318C8.67992 34.1284 9.49097 34.9391 10.4876 34.9391H10.6707C11.6674 34.9391 12.4781 34.1284 12.4781 33.1318V32.0382H23.8874V33.1318C23.8874 34.1284 24.6981 34.9391 25.6947 34.9391H25.8778C26.8745 34.9391 27.6852 34.1284 27.6852 33.1318V32.0382H30.7215V40.9766C30.7215 42.2691 29.6703 43.3203 28.3781 43.3203H7.98304C6.69053 43.3203 5.63929 42.2691 5.63929 40.9766ZM28.3781 44.0556C30.0756 44.0556 31.4568 42.6741 31.4568 40.9766V32.0382H31.9332C32.1364 32.0382 32.3009 31.8737 32.3009 31.6705V31.0645H45.401C43.0572 40.5099 34.5153 47.5346 24.3552 47.5346C20.0258 47.5346 15.9956 46.2498 12.6065 44.0556H28.3781Z" fill="#5E35B1"/>
<path d="M10.9662 40.3793H8.58046V38.1483C8.58046 37.9451 8.41602 37.7806 8.21281 37.7806C8.0096 37.7806 7.84516 37.9451 7.84516 38.1483V40.7469C7.84516 40.9502 8.0096 41.1146 8.21281 41.1146H10.9662C11.1694 41.1146 11.3339 40.9502 11.3339 40.7469C11.3339 40.5437 11.1694 40.3793 10.9662 40.3793ZM39.8445 4.15242H40.6207C40.8239 4.15242 40.9883 3.98799 40.9883 3.78478C40.9883 3.58156 40.8239 3.41713 40.6207 3.41713H39.8445C39.6412 3.41713 39.4768 3.58156 39.4768 3.78478C39.4768 3.98799 39.6412 4.15242 39.8445 4.15242ZM35.4578 4.15242H38.0892C38.2924 4.15242 38.4568 3.98799 38.4568 3.78478C38.4568 3.58156 38.2924 3.41713 38.0892 3.41713H35.4578C35.2546 3.41713 35.0902 3.58156 35.0902 3.78478C35.0902 3.98799 35.2546 4.15242 35.4578 4.15242ZM33.5618 40.235C33.765 40.235 33.9294 40.0705 33.9294 39.8673V38.7134C33.9294 38.5102 33.765 38.3458 33.5618 38.3458C33.3586 38.3458 33.1941 38.5102 33.1941 38.7134V39.8673C33.1941 40.0705 33.3586 40.235 33.5618 40.235ZM33.5618 37.1918C33.765 37.1918 33.9294 37.0274 33.9294 36.8242V33.4888C33.9294 33.2856 33.765 33.1211 33.5618 33.1211C33.3586 33.1211 33.1941 33.2856 33.1941 33.4888V36.8242C33.1941 37.0274 33.3586 37.1918 33.5618 37.1918ZM2.12581 15.263C4.0635 11.2099 7.07791 7.75852 10.8427 5.28086C11.0122 5.16956 11.0592 4.94157 10.9475 4.77175C10.8366 4.60265 10.609 4.5549 10.4384 4.66691C6.56199 7.21782 3.45781 10.7722 1.46232 14.9456C1.37472 15.1287 1.45227 15.3484 1.63537 15.436C1.82049 15.5241 2.03904 15.4444 2.12581 15.263ZM13.5843 3.71871C14.5978 3.22433 15.6551 2.79636 16.7261 2.44667C16.9189 2.38384 17.0245 2.17632 16.9617 1.98316C16.8988 1.79072 16.6927 1.68552 16.4978 1.748C15.3949 2.10774 14.3059 2.54863 13.2619 3.0581C13.0795 3.14714 13.0037 3.36722 13.0927 3.54961C13.1829 3.73509 13.4061 3.80656 13.5843 3.71871Z" fill="#5E35B1"/>
</svg>
